<svg version="1.1" id="Layer_1" xmlns="http://www.w3.org/2000/svg" xmlns:xlink="http://www.w3.org/1999/xlink" x="0px" y="0px"
	 viewBox="37 125 885 307.4" enable-background="new 37 125 885 307.4" xml:space="preserve">
<g>
	<circle fill="#FFFFFF" cx="191.9" cy="277.2" r="131.4"/>
	<g>
		<path fill="#DE9E1F" d="M490.6,167c0-7.3,3.9-11,11-11h13.8c7.1,0,11,3.7,11,11v65.3c0,10.2,6.7,15.1,16.6,15.1
			c10.2,0,16.8-4.9,16.8-14.9V167c0-7.3,3.7-11,11-11h13.5c7.3,0,11,3.7,11,11v65.3c0,27.6-20.5,47.6-52.3,47.6
			c-32.1,0-52.6-20-52.6-47.6V167H490.6z"/>
		<path fill="#DE9E1F" d="M604.6,167c0-7.3,3.9-11,11.2-11h56.8c7.1,0,11,3.7,11,11v8.5c0,7.1-3.9,11-11,11h-32.3v14.7h23.1
			c7.3,0,11.2,3.9,11.2,11v8.5c0,7.3-3.9,11-11.2,11h-23.1v15.6h34.3c7.3,0,11.2,3.9,11.2,11v8.5c0,7.1-3.9,11-11.2,11h-58.8
			c-7.3,0-11.2-3.9-11.2-11V167z"/>
		<path fill="#DE9E1F" d="M691.9,167c0-7.3,3.9-11,11.2-11h33.1c11.2,0,18.8,0.6,24.2,2.5c13.8,4.5,23.9,18.6,23.9,36.6
			c0,12.4-5.1,26.8-16.9,34.1v0.3c0,0,2.8,3.1,5.4,7.8l15.2,27.1c4.8,8.5,0.5,13.4-7.6,13.4h-15.8c-5.3,0-10.1-2-13-7.8l-15.4-29.8
			h-8.5v26.7c0,7.1-3.7,11-11,11h-13.5c-7.3,0-11.2-3.9-11.2-11V167H691.9z M735.3,209.7c8.5,0,12.7-3.7,12.7-12.9
			c0-3.2-0.5-7-5.4-9c-2.8-1.2-5.6-1.4-9.5-1.4h-5.4v23.3H735.3z"/>
		<path fill="#DE9E1F" d="M854,154c38.6,0,64.4,27.3,64.4,62.2c0,35.8-25.8,63.8-64.4,63.8c-38.6,0-64.2-27.9-64.2-63.8
			C789.6,181.3,815.3,154,854,154z M854,247.4c16.3,0,27.5-13.4,27.5-31.2c0-16.9-11.2-29.6-27.5-29.6c-16.1,0-27.3,12.7-27.3,29.6
			C826.7,234.1,837.8,247.4,854,247.4z"/>
		<path fill="#DE9E1F" d="M484.2,216.2c0-34.9-25.8-62.2-64.4-62.2s-64.2,27.3-64.2,62.2c0,35.8,25.6,63.8,64.2,63.8
			c11.4,0,21.7-2.4,30.6-6.8l1,1c5.7,5.7,15.1,5.7,20.8,0l0.1-0.1c5.5-5.5,5.7-14.4,0.6-20.2C480.1,243.4,484.2,230.4,484.2,216.2z
			 M392.3,216.2c0-16.9,11.2-29.6,27.3-29.6c16.3,0,27.5,12.7,27.5,29.6c0,3.7-0.5,7.3-1.5,10.5c-5.8-5.4-14.8-5.3-20.5,0.3
			l-0.1,0.1c-5.4,5.4-5.7,14.1-1,19.8c-1.5,0.2-3,0.4-4.5,0.4C403.6,247.4,392.3,234.1,392.3,216.2z"/>
	</g>
	<g>
		<path fill="#05869B" d="M362.1,314.3c0-7.6,4.1-11.5,11.7-11.5h36.4c27.3,0,46.3,11.2,46.3,33.8c0,9.9-4.8,21.3-14.4,27v0.3
			c15.1,4.8,19.5,17.9,19.5,27.8c0,29.4-25.4,38.7-52,38.7h-35.9c-7.6,0-11.7-4.1-11.7-11.5L362.1,314.3L362.1,314.3z M410.6,350.2
			c6,0,8.5-5.2,8.5-8.7c0-4.2-2.4-8.5-9.2-8.5h-10.5v17.2h11.2V350.2z M412.8,400.1c7.4,0,11.3-5.3,11.3-10.3
			c0-4.7-3.6-9.9-11.2-9.9h-13.4v20.2H412.8z"/>
		<path fill="#05869B" d="M533.4,300.6c40.4,0,67.4,28.6,67.4,65.1c0,37.5-27,66.7-67.4,66.7c-40.4,0-67.2-29.3-67.2-66.7
			C466.1,329.2,492.9,300.6,533.4,300.6z M533.4,398.4c17,0,28.8-14,28.8-32.7c0-17.8-11.7-31-28.8-31c-16.8,0-28.6,13.3-28.6,31
			C504.8,384.3,516.5,398.4,533.4,398.4z"/>
		<path fill="#05869B" d="M609.5,314.3c0-7.6,4.1-11.5,11.7-11.5h14.2c7.6,0,11.5,3.9,11.5,11.5v84.1H685c7.6,0,11.7,4.1,11.7,11.5
			v8.9c0,7.4-4.1,11.5-11.7,11.5h-63.9c-7.6,0-11.7-4.1-11.7-11.5V314.3H609.5z"/>
		<path fill="#05869B" d="M706.1,404l6.8-9.7c4.2-6.2,9.1-6.6,16-2.9c4.1,1.6,11.2,7.3,21.2,7.3c7.3,0,9.4-2.6,9.4-5.7
			c0-13.4-54-10.8-54-51.6c0-24.4,20.2-40.8,47.4-40.8c14.7,0,28.9,4.8,35.4,9.2c6.2,4.4,6.8,9.7,3.7,16l-5.2,10.2
			c-4.2,8.4-9.9,6.9-15.8,4.1c-6.3-2.9-11.2-5.7-18.8-5.7c-7.1,0-9.6,2.4-9.6,5.8c0,14.5,54.1,9.9,54.1,50.9
			c0,22-16.7,41.4-46.9,41.4c-17.6,0-34.3-6.8-41.5-12.4C703.9,416.6,700.6,412,706.1,404z"/>
		<path fill="#05869B" d="M832.6,312.2c2.1-6.3,6.2-9.4,13.1-9.4h19.4c6.8,0,11,3.1,13.1,9.4L912.8,417c2.9,7.9-1.1,13.3-9.4,13.3
			H889c-6.9,0-11-3.2-13.1-9.7l-2.6-12.4h-36l-2.6,12.4c-1.8,6.6-6,9.7-12.8,9.7h-14.4c-8.4,0-12.3-5.3-9.4-13.3L832.6,312.2z
			 M864.8,378.5l-3.9-17.8c-2.3-8.7-5.3-23.6-5.3-23.6h-0.3c0,0-2.9,14.9-5.2,23.6l-4.2,17.8H864.8z"/>
	</g>
	<g>
		<circle fill="#DE9E1F" cx="128.1" cy="344.1" r="16.2"/>
		<path fill="#DE9E1F" d="M342,280.2c0-83-67.3-150.2-150.2-150.2S41.5,197,41.5,280s67.3,150,150.2,150h135.4l-38-35.8
			C321.6,366.8,342,325.9,342,280.2z M127.9,190.7c14.6,0,26.5,11.9,26.5,26.5c0,14.6-11.9,26.5-26.5,26.5s-26.5-11.9-26.5-26.5
			C101.5,202.4,113.3,190.7,127.9,190.7z M199,310.6l-51.7,51.7c-10.3,10.3-27.1,10.3-37.4,0l0,0c-10.3-10.3-10.3-27.1,0-37.4
			l51.7-51.7c10.3-10.3,27.1-10.3,37.4,0l0,0C209.3,283.5,209.3,300.3,199,310.6z M224.7,282.1c0.8-9.4-2.2-19.2-9.4-26.2l0,0
			c-6.6-6.6-15.3-9.7-24-9.5c-1,0-1.5-1.2-0.8-1.9l46.2-46.2c10.3-10.3,27.1-10.3,37.4,0l0,0c10.3,10.3,10.3,27.1,0,37.4L226.6,283
			C225.8,283.7,224.6,283.1,224.7,282.1z M256.1,370.4c-14.6,0-26.5-11.9-26.5-26.5s11.9-26.5,26.5-26.5c14.6,0,26.5,11.9,26.5,26.5
			C282.4,358.5,270.7,370.4,256.1,370.4z"/>
	</g>
</g>
</svg>
